<?xml version="1.0" encoding="UTF-8" standalone="no"?>
<!-- Created with Inkscape (http://www.inkscape.org/) -->

<svg
   width="230"
   height="76"
   viewBox="0 0 60.854168 20.108334"
   version="1.1"
   id="svg11759"
   sodipodi:docname="loop91-logo.svg"
   inkscape:version="1.1.2 (0a00cf5339, 2022-02-04)"
   xmlns:inkscape="http://www.inkscape.org/namespaces/inkscape"
   xmlns:sodipodi="http://sodipodi.sourceforge.net/DTD/sodipodi-0.dtd"
   xmlns="http://www.w3.org/2000/svg"
   xmlns:svg="http://www.w3.org/2000/svg">
  <sodipodi:namedview
     id="namedview12"
     pagecolor="#ffffff"
     bordercolor="#666666"
     borderopacity="1.0"
     inkscape:pageshadow="2"
     inkscape:pageopacity="0.0"
     inkscape:pagecheckerboard="0"
     showgrid="false"
     inkscape:zoom="2.3329351"
     inkscape:cx="99.23122"
     inkscape:cy="50.794382"
     inkscape:window-width="1538"
     inkscape:window-height="936"
     inkscape:window-x="0"
     inkscape:window-y="0"
     inkscape:window-maximized="1"
     inkscape:current-layer="svg11759" />
  <defs
     id="defs11756" />
  <g
     id="layer1"
     style="fill:#ff6600">
    <g
       aria-label="loop91"
       transform="matrix(0.49064218,0,0,0.49064218,672.91581,-121.72168)"
       id="flowRoot815-4-0-3-7"
       style="font-weight:600;font-size:40px;line-height:1.25;font-family:Inter;-inkscape-font-specification:'Inter Semi-Bold';letter-spacing:0px;word-spacing:0px;fill:#ff6600">
      <path
         d="m -1365.9652,279.53831 q -1.6,0 -2.88,-0.88 -1.24,-0.88 -1.96,-2.44 -0.68,-1.56 -0.68,-3.6 v -22.8 q 0,-0.68 0.4,-1.08 0.44,-0.44 1.12,-0.44 0.68,0 1.08,0.44 0.44,0.4 0.44,1.08 v 22.8 q 0,1.72 0.68,2.8 0.72,1.08 1.8,1.08 h 1 q 0.6,0 0.96,0.44 0.36,0.4 0.36,1.08 0,0.68 -0.52,1.12 -0.48,0.4 -1.28,0.4 z"
         style="font-weight:normal;font-family:Comfortaa;-inkscape-font-specification:Comfortaa;fill:#ff6600"
         id="path11861" />
      <path
         d="m -1350.6452,279.73831 q -3.2,0 -5.72,-1.44 -2.52,-1.44 -3.96,-3.96 -1.44,-2.52 -1.44,-5.72 0,-3.24 1.44,-5.76 1.44,-2.52 3.96,-3.96 2.52,-1.44 5.72,-1.44 3.2,0 5.68,1.44 2.52,1.44 3.96,3.96 1.44,2.52 1.48,5.76 0,3.2 -1.48,5.72 -1.44,2.52 -3.96,3.96 -2.48,1.44 -5.68,1.44 z m 0,-2.8 q 2.32,0 4.16,-1.08 1.84,-1.08 2.88,-2.96 1.04,-1.88 1.04,-4.28 0,-2.4 -1.04,-4.28 -1.04,-1.92 -2.88,-3 -1.84,-1.08 -4.16,-1.08 -2.32,0 -4.16,1.08 -1.84,1.08 -2.92,3 -1.04,1.88 -1.04,4.28 0,2.4 1.04,4.28 1.08,1.88 2.92,2.96 1.84,1.08 4.16,1.08 z"
         style="font-weight:normal;font-family:Comfortaa;-inkscape-font-specification:Comfortaa;fill:#ff6600"
         id="path11863" />
      <path
         d="m -1323.5653,279.73831 q -3.2,0 -5.72,-1.44 -2.52,-1.44 -3.96,-3.96 -1.44,-2.52 -1.44,-5.72 0,-3.24 1.44,-5.76 1.44,-2.52 3.96,-3.96 2.52,-1.44 5.72,-1.44 3.2,0 5.68,1.44 2.52,1.44 3.96,3.96 1.44,2.52 1.48,5.76 0,3.2 -1.48,5.72 -1.44,2.52 -3.96,3.96 -2.48,1.44 -5.68,1.44 z m 0,-2.8 q 2.32,0 4.16,-1.08 1.84,-1.08 2.88,-2.96 1.04,-1.88 1.04,-4.28 0,-2.4 -1.04,-4.28 -1.04,-1.92 -2.88,-3 -1.84,-1.08 -4.16,-1.08 -2.32,0 -4.16,1.08 -1.84,1.08 -2.92,3 -1.04,1.88 -1.04,4.28 0,2.4 1.04,4.28 1.08,1.88 2.92,2.96 1.84,1.08 4.16,1.08 z"
         style="font-weight:normal;font-family:Comfortaa;-inkscape-font-specification:Comfortaa;fill:#ff6600"
         id="path11865" />
      <path
         d="m -1304.8853,288.89831 q -0.72,0 -1.16,-0.44 -0.4,-0.4 -0.4,-1.12 v -18.88 q 0.04,-3.12 1.48,-5.6 1.48,-2.52 3.96,-3.96 2.52,-1.44 5.64,-1.44 3.2,0 5.72,1.48 2.52,1.44 3.96,3.96 1.48,2.52 1.48,5.72 0,3.16 -1.44,5.68 -1.4,2.52 -3.84,4 -2.44,1.44 -5.52,1.44 -2.68,0 -4.88,-1.12 -2.16,-1.16 -3.48,-3.04 v 11.76 q 0,0.72 -0.44,1.12 -0.4,0.44 -1.08,0.44 z m 9.52,-11.96 q 2.32,0 4.16,-1.08 1.84,-1.08 2.88,-2.96 1.08,-1.92 1.08,-4.28 0,-2.4 -1.08,-4.28 -1.04,-1.88 -2.88,-2.96 -1.84,-1.12 -4.16,-1.12 -2.28,0 -4.12,1.12 -1.84,1.08 -2.88,2.96 -1.04,1.88 -1.04,4.28 0,2.36 1.04,4.28 1.04,1.88 2.88,2.96 1.84,1.08 4.12,1.08 z"
         style="font-weight:normal;font-family:Comfortaa;-inkscape-font-specification:Comfortaa;fill:#ff6600"
         id="path11867" />
      <path
         d="m -1270.6054,248.25831 q 2.72,0 4.84,1.24 2.12,1.2 3.32,3.32 1.24,2.12 1.24,4.84 0,2.68 -1.24,4.84 -1.2,2.12 -3.32,3.36 -2.12,1.2 -4.84,1.2 -2.72,0 -4.84,-1.2 -2.08,-1.24 -3.32,-3.36 -1.2,-2.16 -1.2,-4.84 0,-2.72 1.2,-4.84 1.24,-2.12 3.32,-3.32 2.12,-1.24 4.84,-1.24 z m 0,2.88 q -1.84,0 -3.28,0.84 -1.44,0.84 -2.28,2.32 -0.84,1.48 -0.84,3.36 0,1.88 0.84,3.36 0.84,1.48 2.28,2.36 1.44,0.84 3.28,0.84 1.84,0 3.28,-0.84 1.48,-0.88 2.32,-2.36 0.84,-1.48 0.84,-3.36 0,-1.88 -0.84,-3.36 -0.84,-1.48 -2.32,-2.32 -1.44,-0.84 -3.28,-0.84 z m 8.2,11.28 -9.84,16.24 q -0.56,0.84 -1.4,0.84 -0.64,0 -1.08,-0.36 -0.4,-0.36 -0.52,-0.92 -0.08,-0.56 0.24,-1.12 l 6.56,-10.72 z"
         style="font-weight:normal;font-family:Comfortaa;-inkscape-font-specification:Comfortaa;fill:#ff6600"
         id="path11869" />
      <path
         d="m -1249.0455,279.53831 q -0.64,0 -1.12,-0.44 -0.44,-0.44 -0.44,-1.12 v -26 l -4,1.4 q -0.44,0.2 -0.8,0.2 -0.68,0 -1.12,-0.44 -0.44,-0.44 -0.44,-1.08 0,-0.48 0.2,-0.88 0.24,-0.4 0.8,-0.6 l 6.16,-2.12 q 0.2,-0.08 0.4,-0.12 0.24,-0.08 0.4,-0.08 0.68,0 1.08,0.48 0.44,0.44 0.44,1.08 v 28.16 q 0,0.68 -0.44,1.12 -0.44,0.44 -1.12,0.44 z"
         style="font-weight:normal;font-family:Comfortaa;-inkscape-font-specification:Comfortaa;fill:#ff6600"
         id="path11871" />
    </g>
  </g>
</svg>
